<svg width="4em" height="67" viewBox="0 0 99 67" fill="none" xmlns="http://www.w3.org/2000/svg">
<path d="M21.2514 20.7138C21.7115 21.2371 22.2588 21.6524 22.8619 21.9359C23.465 22.2193 24.1119 22.3653 24.7652 22.3653C25.4185 22.3653 26.0654 22.2193 26.6685 21.9359C27.2715 21.6524 27.8189 21.2371 28.279 20.7138C28.7428 20.1947 29.111 19.5772 29.3623 18.8969C29.6135 18.2165 29.7429 17.4867 29.7429 16.7497C29.7429 16.0126 29.6135 15.2829 29.3623 14.6025C29.111 13.9221 28.7428 13.3046 28.279 12.7856L18.381 1.61914C17.9103 1.11083 17.3553 0.712388 16.7478 0.446658C15.5429 -0.111766 14.1915 -0.111766 12.9866 0.446658C12.3791 0.712388 11.8241 1.11083 11.3534 1.61914L1.45546 12.7856C0.523543 13.8369 0 15.2629 0 16.7497C0 18.2365 0.523543 19.6624 1.45546 20.7138C2.38737 21.7651 3.65131 22.3557 4.96924 22.3557C6.28716 22.3557 7.55111 21.7651 8.48302 20.7138L9.91823 19.0388V47.9599L8.48302 46.2849C7.55111 45.2336 6.28716 44.643 4.96924 44.643C3.65131 44.643 2.38737 45.2336 1.45546 46.2849C0.523543 47.3363 0 48.7622 0 50.249C0 51.7359 0.523543 53.1618 1.45546 54.2131L11.3534 65.3796C11.8241 65.8879 12.3791 66.2863 12.9866 66.552C13.579 66.8474 14.2195 67 14.8672 67C15.5149 67 16.1554 66.8474 16.7478 66.552C17.3553 66.2863 17.9103 65.8879 18.381 65.3796L28.279 54.2131C28.7404 53.6925 29.1064 53.0745 29.3562 52.3944C29.6059 51.7142 29.7344 50.9852 29.7344 50.249C29.7344 49.5128 29.6059 48.7838 29.3562 48.1037C29.1064 47.4235 28.7404 46.8055 28.279 46.2849C27.8175 45.7644 27.2697 45.3514 26.6668 45.0697C26.0639 44.788 25.4178 44.643 24.7652 44.643C24.1126 44.643 23.4664 44.788 22.8635 45.0697C22.2606 45.3514 21.7128 45.7644 21.2514 46.2849L19.8162 47.9599V19.0388L21.2514 20.7138ZM44.5611 11.1665H94.051C95.3636 11.1665 96.6224 10.5782 97.5505 9.53116C98.4786 8.4841 99 7.06399 99 5.58323C99 4.10246 98.4786 2.68235 97.5505 1.63529C96.6224 0.588232 95.3636 0 94.051 0H44.5611C43.2486 0 41.9898 0.588232 41.0617 1.63529C40.1336 2.68235 39.6121 4.10246 39.6121 5.58323C39.6121 7.06399 40.1336 8.4841 41.0617 9.53116C41.9898 10.5782 43.2486 11.1665 44.5611 11.1665ZM94.051 27.9161H44.5611C43.2486 27.9161 41.9898 28.5044 41.0617 29.5514C40.1336 30.5985 39.6121 32.0186 39.6121 33.4994C39.6121 34.9801 40.1336 36.4002 41.0617 37.4473C41.9898 38.4943 43.2486 39.0826 44.5611 39.0826H94.051C95.3636 39.0826 96.6224 38.4943 97.5505 37.4473C98.4786 36.4002 99 34.9801 99 33.4994C99 32.0186 98.4786 30.5985 97.5505 29.5514C96.6224 28.5044 95.3636 27.9161 94.051 27.9161ZM94.051 55.8323H44.5611C43.2486 55.8323 41.9898 56.4205 41.0617 57.4675C40.1336 58.5146 39.6121 59.9347 39.6121 61.4155C39.6121 62.8962 40.1336 64.3164 41.0617 65.3634C41.9898 66.4105 43.2486 66.9987 44.5611 66.9987H94.051C95.3636 66.9987 96.6224 66.4105 97.5505 65.3634C98.4786 64.3164 99 62.8962 99 61.4155C99 59.9347 98.4786 58.5146 97.5505 57.4675C96.6224 56.4205 95.3636 55.8323 94.051 55.8323Z" fill="white">
</svg>
